<!-- Generator: Avocode 2.1.0 - http://avocode.com -->
<svg height="28" width="32" xmlns:xlink="http://www.w3.org/1999/xlink" xmlns="http://www.w3.org/2000/svg" viewBox="0 0 32 28">
    <path fill="#ff8e00" fill-rule="evenodd" d="M 0 2.5 C 0 1.12 1.12 0 2.5 0 L 29.5 0 C 30.88 0 32 1.12 32 2.5 L 32 0.5 C 32 1.88 32 4.12 32 5 L 32 3 C 32 4.1 30.88 5 29.5 5 L 2.5 5 C 1.12 5 0 3.89 0 2.5 L 0 2.5 Z M 0 2.5" />
    <path fill="#ff8e00" fill-rule="evenodd" d="M 0 13.5 C 0 12.12 1.12 11 2.5 11 L 29.5 11 C 30.88 11 32 12.12 32 13.5 L 32 11.5 C 32 12.88 32 15.12 32 16 L 32 14 C 32 15.1 30.88 16 29.5 16 L 2.5 16 C 1.12 16 0 14.89 0 13.5 L 0 13.5 Z M 0 13.5" />
    <path fill="#ff8e00" fill-rule="evenodd" d="M 0 25.5 C 0 24.12 1.12 23 2.5 23 L 29.5 23 C 30.88 23 32 24.12 32 25.5 L 32 23.5 C 32 24.88 32 27.12 32 28 L 32 26 C 32 27.1 30.88 28 29.5 28 L 2.5 28 C 1.12 28 0 26.89 0 25.5 L 0 25.5 Z M 0 25.5" />
</svg>